<?xml version="1.0" encoding="UTF-8" standalone="no"?>
<!-- Generator: Adobe Illustrator 16.0.0, SVG Export Plug-In . SVG Version: 6.00 Build 0)  -->

<svg
   xmlns:dc="http://purl.org/dc/elements/1.1/"
   xmlns:cc="http://creativecommons.org/ns#"
   xmlns:rdf="http://www.w3.org/1999/02/22-rdf-syntax-ns#"
   xmlns:svg="http://www.w3.org/2000/svg"
   xmlns="http://www.w3.org/2000/svg"
   xmlns:sodipodi="http://sodipodi.sourceforge.net/DTD/sodipodi-0.dtd"
   xmlns:inkscape="http://www.inkscape.org/namespaces/inkscape"
   version="1.1"
   id="Capa_1"
   x="0px"
   y="0px"
   width="554.883px"
   height="554.883px"
   viewBox="0 0 554.883 554.883"
   style="enable-background:new 0 0 554.883 554.883;"
   xml:space="preserve"
   inkscape:version="0.91 r13725"
   sodipodi:docname="listening.svg"><metadata
     id="metadata47"><rdf:RDF><cc:Work
         rdf:about=""><dc:format>image/svg+xml</dc:format><dc:type
           rdf:resource="http://purl.org/dc/dcmitype/StillImage" /><dc:title></dc:title></cc:Work></rdf:RDF></metadata><defs
     id="defs45" /><sodipodi:namedview
     pagecolor="#ffffff"
     bordercolor="#666666"
     borderopacity="1"
     objecttolerance="10"
     gridtolerance="10"
     guidetolerance="10"
     inkscape:pageopacity="0"
     inkscape:pageshadow="2"
     inkscape:window-width="640"
     inkscape:window-height="480"
     id="namedview43"
     showgrid="false"
     inkscape:zoom="0.42531489"
     inkscape:cx="277.4415"
     inkscape:cy="277.4415"
     inkscape:window-x="96"
     inkscape:window-y="0"
     inkscape:window-maximized="0"
     inkscape:current-layer="Capa_1" /><g
     id="g3"><g
       id="g5"><path
         d="M277.334,27.482C124.414,28.192,0,153.178,0,306.092c0,46.439,11.643,92.219,33.66,132.785v-73.66    c0-13.576,4.832-26.168,13.302-36.971c-0.701-7.346-1.062-14.74-1.062-22.154c0-127.724,103.915-232.116,231.434-232.709    c127.73,0.591,231.645,104.985,231.645,232.709c0,8.211-0.455,16.393-1.314,24.52c7.361,10.258,11.518,22.012,11.518,34.605    v77.396c23.35-41.477,35.701-88.656,35.701-136.521C554.883,153.178,430.469,28.192,277.334,27.482z"
         id="path7" /><path
         d="M50.756,353.324c-1.172,3.84-1.796,7.818-1.796,11.896v70.994v33.045c0,32.109,38.241,58.141,85.417,58.141h35.964V307.08    h-35.964C93.192,307.08,58.825,326.918,50.756,353.324z"
         id="path9" /><path
         d="M503.881,469.26v-34.201v-69.838c0-2.506-0.26-4.973-0.713-7.396c-5.34-28.617-41.213-50.744-84.703-50.744H382.5V527.4    h35.965C465.641,527.4,503.881,501.369,503.881,469.26z"
         id="path11" /></g></g><g
     id="g13" /><g
     id="g15" /><g
     id="g17" /><g
     id="g19" /><g
     id="g21" /><g
     id="g23" /><g
     id="g25" /><g
     id="g27" /><g
     id="g29" /><g
     id="g31" /><g
     id="g33" /><g
     id="g35" /><g
     id="g37" /><g
     id="g39" /><g
     id="g41" /></svg>