<?xml version="1.0" encoding="UTF-8" standalone="no"?>
<!-- Generator: Adobe Illustrator 16.0.0, SVG Export Plug-In . SVG Version: 6.00 Build 0)  -->

<svg
   xmlns:dc="http://purl.org/dc/elements/1.1/"
   xmlns:cc="http://creativecommons.org/ns#"
   xmlns:rdf="http://www.w3.org/1999/02/22-rdf-syntax-ns#"
   xmlns:svg="http://www.w3.org/2000/svg"
   xmlns="http://www.w3.org/2000/svg"
   xmlns:sodipodi="http://sodipodi.sourceforge.net/DTD/sodipodi-0.dtd"
   xmlns:inkscape="http://www.inkscape.org/namespaces/inkscape"
   version="1.1"
   id="Capa_1"
   x="0px"
   y="0px"
   width="30.812px"
   height="30.812px"
   viewBox="0 0 30.812 30.812"
   style="enable-background:new 0 0 30.812 30.812;"
   xml:space="preserve"
   inkscape:version="0.91 r13725"
   sodipodi:docname="workbook.svg"><metadata
     id="metadata59"><rdf:RDF><cc:Work
         rdf:about=""><dc:format>image/svg+xml</dc:format><dc:type
           rdf:resource="http://purl.org/dc/dcmitype/StillImage" /><dc:title></dc:title></cc:Work></rdf:RDF></metadata><defs
     id="defs57" /><sodipodi:namedview
     pagecolor="#ffffff"
     bordercolor="#666666"
     borderopacity="1"
     objecttolerance="10"
     gridtolerance="10"
     guidetolerance="10"
     inkscape:pageopacity="0"
     inkscape:pageshadow="2"
     inkscape:window-width="640"
     inkscape:window-height="480"
     id="namedview55"
     showgrid="false"
     inkscape:zoom="7.6593534"
     inkscape:cx="15.406"
     inkscape:cy="15.406"
     inkscape:window-x="103"
     inkscape:window-y="0"
     inkscape:window-maximized="0"
     inkscape:current-layer="Capa_1" /><g
     id="g3"><g
       id="g5"><path
         d="M24.577,27.374c-1.069-0.431-2.302-0.648-3.664-0.648c-3.343,0-6.523,1.281-7.48,1.703V22.31l0.446,0.49v-9.191    c1.688-1.419,3.734-2.181,6.1-2.273l0.459-0.773c-2.779,0.003-5.179,0.853-7.13,2.527c-1.955-1.678-4.358-2.528-7.148-2.528    c-2.605,0-4.558,0.759-4.639,0.791l-0.24,0.094v1.539C0.491,13.132,0,13.396,0,13.827c0,2.244,0,15.859,0,15.859h11.68    c0.405,0.361,0.995,0.592,1.656,0.592s1.252-0.23,1.655-0.592h11.388c0,0,0-14.918,0-15.843l-1.802,3.729V27.374z M13.181,28.437    c-0.97-0.398-4.31-1.67-7.654-1.67c-1.321,0-2.492,0.205-3.49,0.604v-15.4c0.582-0.194,2.169-0.652,4.122-0.652    c2.568,0,4.775,0.776,6.578,2.291v9.192l0.444-0.49V28.437z"
         id="path7" /><path
         d="M3.534,13.995l0.157,0.593c3.944-1.046,7.494,0.889,7.529,0.909l0.298-0.536C11.366,14.878,7.723,12.885,3.534,13.995z"
         id="path9" /><path
         d="M3.534,15.731l0.157,0.592c3.944-1.047,7.494,0.891,7.529,0.909l0.298-0.535C11.366,16.612,7.723,14.62,3.534,15.731z"
         id="path11" /><path
         d="M3.534,17.361l0.157,0.593c3.944-1.045,7.494,0.891,7.529,0.91l0.298-0.535C11.366,18.242,7.723,16.251,3.534,17.361z"
         id="path13" /><path
         d="M3.534,19.149l0.157,0.592c3.944-1.046,7.494,0.891,7.529,0.909l0.298-0.535C11.366,20.031,7.723,18.038,3.534,19.149z"
         id="path15" /><path
         d="M3.534,20.806l0.157,0.592c3.944-1.045,7.494,0.89,7.529,0.908l0.298-0.535C11.366,21.687,7.723,19.696,3.534,20.806z"
         id="path17" /><path
         d="M3.534,22.507l0.157,0.592c3.944-1.047,7.494,0.89,7.529,0.91l0.298-0.537C11.366,23.388,7.723,21.397,3.534,22.507z"
         id="path19" /><path
         d="M3.534,24.211l0.157,0.593c3.944-1.047,7.494,0.889,7.529,0.908l0.298-0.533C11.366,25.093,7.723,23.101,3.534,24.211z"
         id="path21" /><path
         d="M26.348,0.534l-1.849,3.801l0.009,0.003l-5.717,11.774l-0.499,6.193l4.894-3.951L28.96,6.499l0.008,0.005l1.845-3.801    L26.348,0.534z M22.854,18.028l-2.793,2.253l-1.107-0.535l0.273-3.471l0.258-0.537l0.513,1.817l1.133-0.729l0.222,1.385    l1.69-0.571L22.854,18.028z M28.895,4.539l-2.804-1.361l0.683-1.406l2.803,1.362L28.895,4.539z"
         id="path23" /></g></g><g
     id="g25" /><g
     id="g27" /><g
     id="g29" /><g
     id="g31" /><g
     id="g33" /><g
     id="g35" /><g
     id="g37" /><g
     id="g39" /><g
     id="g41" /><g
     id="g43" /><g
     id="g45" /><g
     id="g47" /><g
     id="g49" /><g
     id="g51" /><g
     id="g53" /></svg>