<?xml version="1.0" encoding="UTF-8" standalone="no"?>
<!-- Generator: Adobe Illustrator 18.0.0, SVG Export Plug-In . SVG Version: 6.00 Build 0)  -->

<svg
   xmlns:dc="http://purl.org/dc/elements/1.1/"
   xmlns:cc="http://creativecommons.org/ns#"
   xmlns:rdf="http://www.w3.org/1999/02/22-rdf-syntax-ns#"
   xmlns:svg="http://www.w3.org/2000/svg"
   xmlns="http://www.w3.org/2000/svg"
   xmlns:sodipodi="http://sodipodi.sourceforge.net/DTD/sodipodi-0.dtd"
   xmlns:inkscape="http://www.inkscape.org/namespaces/inkscape"
   version="1.1"
   id="Capa_1"
   x="0px"
   y="0px"
   viewBox="0 0 371.117 371.117"
   style="enable-background:new 0 0 371.117 371.117;"
   xml:space="preserve"
   inkscape:version="0.91 r13725"
   sodipodi:docname="speaking.svg"><metadata
     id="metadata39"><rdf:RDF><cc:Work
         rdf:about=""><dc:format>image/svg+xml</dc:format><dc:type
           rdf:resource="http://purl.org/dc/dcmitype/StillImage" /><dc:title></dc:title></cc:Work></rdf:RDF></metadata><defs
     id="defs37" /><sodipodi:namedview
     pagecolor="#ffffff"
     bordercolor="#666666"
     borderopacity="1"
     objecttolerance="10"
     gridtolerance="10"
     guidetolerance="10"
     inkscape:pageopacity="0"
     inkscape:pageshadow="2"
     inkscape:window-width="640"
     inkscape:window-height="480"
     id="namedview35"
     showgrid="false"
     inkscape:zoom="0.63591805"
     inkscape:cx="185.5585"
     inkscape:cy="185.5585"
     inkscape:window-x="102"
     inkscape:window-y="0"
     inkscape:window-maximized="0"
     inkscape:current-layer="Capa_1" /><path
     d="M316.33,64.556c-34.982-27.607-81.424-42.811-130.772-42.811c-49.348,0-95.79,15.204-130.771,42.811  C19.457,92.438,0,129.615,0,169.238c0,23.835,7.308,47.508,21.133,68.46c12.759,19.335,31.07,36.42,53.088,49.564  c-1.016,7.116-6.487,27.941-35.888,52.759c-1.513,1.278-2.13,3.328-1.572,5.229c0.558,1.9,2.185,3.292,4.148,3.55  c0.178,0.023,4.454,0.572,12.052,0.572c21.665,0,65.939-4.302,120.063-32.973c4.177,0.221,8.387,0.333,12.534,0.333  c49.348,0,95.789-15.204,130.772-42.811c35.33-27.882,54.787-65.059,54.787-104.683C371.117,129.615,351.66,92.438,316.33,64.556z"
     id="path3" /><g
     id="g5" /><g
     id="g7" /><g
     id="g9" /><g
     id="g11" /><g
     id="g13" /><g
     id="g15" /><g
     id="g17" /><g
     id="g19" /><g
     id="g21" /><g
     id="g23" /><g
     id="g25" /><g
     id="g27" /><g
     id="g29" /><g
     id="g31" /><g
     id="g33" /></svg>