<?xml version="1.0" encoding="UTF-8" standalone="no"?>
<!-- Generator: Adobe Illustrator 16.0.0, SVG Export Plug-In . SVG Version: 6.00 Build 0)  -->

<svg
   xmlns:dc="http://purl.org/dc/elements/1.1/"
   xmlns:cc="http://creativecommons.org/ns#"
   xmlns:rdf="http://www.w3.org/1999/02/22-rdf-syntax-ns#"
   xmlns:svg="http://www.w3.org/2000/svg"
   xmlns="http://www.w3.org/2000/svg"
   xmlns:sodipodi="http://sodipodi.sourceforge.net/DTD/sodipodi-0.dtd"
   xmlns:inkscape="http://www.inkscape.org/namespaces/inkscape"
   version="1.1"
   id="Capa_1"
   x="0px"
   y="0px"
   width="414.373px"
   height="414.373px"
   viewBox="0 0 414.373 414.373"
   style="enable-background:new 0 0 414.373 414.373;"
   xml:space="preserve"
   inkscape:version="0.91 r13725"
   sodipodi:docname="cardgame.svg"><metadata
     id="metadata41"><rdf:RDF><cc:Work
         rdf:about=""><dc:format>image/svg+xml</dc:format><dc:type
           rdf:resource="http://purl.org/dc/dcmitype/StillImage" /><dc:title></dc:title></cc:Work></rdf:RDF></metadata><defs
     id="defs39" /><sodipodi:namedview
     pagecolor="#ffffff"
     bordercolor="#666666"
     borderopacity="1"
     objecttolerance="10"
     gridtolerance="10"
     guidetolerance="10"
     inkscape:pageopacity="0"
     inkscape:pageshadow="2"
     inkscape:window-width="640"
     inkscape:window-height="480"
     id="namedview37"
     showgrid="false"
     inkscape:zoom="0.5695352"
     inkscape:cx="207.18649"
     inkscape:cy="207.18649"
     inkscape:window-x="105"
     inkscape:window-y="0"
     inkscape:window-maximized="0"
     inkscape:current-layer="Capa_1" /><g
     id="g3"><path
       d="M323.892,0H90.483c-12.27,0-22.216,9.946-22.216,22.216v369.94c0,12.271,9.946,22.217,22.216,22.217h233.408   c12.27,0,22.214-9.945,22.214-22.217V22.216C346.105,9.947,336.161,0,323.892,0z M243.812,255.418   c-7.027,0-13.697-1.533-19.695-4.277v29.711h14.813c3.116,0,5.643,2.527,5.643,5.645v11.314c0,3.115-2.526,5.644-5.643,5.644   h-63.484c-3.116,0-5.643-2.526-5.643-5.644v-11.314c0-3.116,2.526-5.645,5.643-5.645h14.813v-29.711   c-5.998,2.744-12.668,4.277-19.695,4.277c-26.181,0-47.404-21.225-47.404-47.404c0-49.703,72.58-106.094,84.029-106.094   c11.449,0,84.029,56.391,84.029,106.094C291.217,234.195,269.993,255.418,243.812,255.418z"
       id="path5" /></g><g
     id="g7" /><g
     id="g9" /><g
     id="g11" /><g
     id="g13" /><g
     id="g15" /><g
     id="g17" /><g
     id="g19" /><g
     id="g21" /><g
     id="g23" /><g
     id="g25" /><g
     id="g27" /><g
     id="g29" /><g
     id="g31" /><g
     id="g33" /><g
     id="g35" /></svg>