<?xml version="1.0" encoding="UTF-8" standalone="no"?>
<!-- Generator: Adobe Illustrator 16.0.0, SVG Export Plug-In . SVG Version: 6.00 Build 0)  -->

<svg
   xmlns:dc="http://purl.org/dc/elements/1.1/"
   xmlns:cc="http://creativecommons.org/ns#"
   xmlns:rdf="http://www.w3.org/1999/02/22-rdf-syntax-ns#"
   xmlns:svg="http://www.w3.org/2000/svg"
   xmlns="http://www.w3.org/2000/svg"
   xmlns:sodipodi="http://sodipodi.sourceforge.net/DTD/sodipodi-0.dtd"
   xmlns:inkscape="http://www.inkscape.org/namespaces/inkscape"
   version="1.1"
   id="Capa_1"
   x="0px"
   y="0px"
   width="31.459px"
   height="31.459px"
   viewBox="0 0 31.459 31.459"
   style="enable-background:new 0 0 31.459 31.459;"
   xml:space="preserve"
   inkscape:version="0.91 r13725"
   sodipodi:docname="story.svg"><metadata
     id="metadata41"><rdf:RDF><cc:Work
         rdf:about=""><dc:format>image/svg+xml</dc:format><dc:type
           rdf:resource="http://purl.org/dc/dcmitype/StillImage" /><dc:title></dc:title></cc:Work></rdf:RDF></metadata><defs
     id="defs39" /><sodipodi:namedview
     pagecolor="#ffffff"
     bordercolor="#666666"
     borderopacity="1"
     objecttolerance="10"
     gridtolerance="10"
     guidetolerance="10"
     inkscape:pageopacity="0"
     inkscape:pageshadow="2"
     inkscape:window-width="640"
     inkscape:window-height="480"
     id="namedview37"
     showgrid="false"
     inkscape:zoom="7.5018279"
     inkscape:cx="15.7295"
     inkscape:cy="15.7295"
     inkscape:window-x="110"
     inkscape:window-y="2"
     inkscape:window-maximized="0"
     inkscape:current-layer="Capa_1" /><g
     id="g3"><polygon
       points="13.18,4.483 13.18,15.898 11.688,14.944 10.197,16.906 10.197,4.785 8.945,4.912 8.58,4.662 25.79,2.794    25.77,2.601 8.335,4.493 8.033,4.285 25.441,2.382 25.42,2.189 7.787,4.118 7.452,3.888 25.133,1.932 25.111,1.739 7.208,3.719    6.835,3.462 24.743,1.471 24.721,1.279 6.591,3.294 6.186,3.016 6.765,2.957 25.189,0.953 24.514,0 4.367,2.135 4.367,2.427    4.367,3.205 4.367,28.863 8.016,31.439 8.016,31.459 27.088,29.523 27.092,3.072  "
       id="polygon5" /></g><g
     id="g7" /><g
     id="g9" /><g
     id="g11" /><g
     id="g13" /><g
     id="g15" /><g
     id="g17" /><g
     id="g19" /><g
     id="g21" /><g
     id="g23" /><g
     id="g25" /><g
     id="g27" /><g
     id="g29" /><g
     id="g31" /><g
     id="g33" /><g
     id="g35" /></svg>