<?xml version="1.0" encoding="UTF-8" standalone="no"?>
<!-- Generator: Adobe Illustrator 18.1.1, SVG Export Plug-In . SVG Version: 6.00 Build 0)  -->

<svg
   xmlns:dc="http://purl.org/dc/elements/1.1/"
   xmlns:cc="http://creativecommons.org/ns#"
   xmlns:rdf="http://www.w3.org/1999/02/22-rdf-syntax-ns#"
   xmlns:svg="http://www.w3.org/2000/svg"
   xmlns="http://www.w3.org/2000/svg"
   xmlns:sodipodi="http://sodipodi.sourceforge.net/DTD/sodipodi-0.dtd"
   xmlns:inkscape="http://www.inkscape.org/namespaces/inkscape"
   version="1.1"
   id="Capa_1"
   x="0px"
   y="0px"
   viewBox="0 0 32.963 32.963"
   style="enable-background:new 0 0 32.963 32.963;"
   xml:space="preserve"
   inkscape:version="0.91 r13725"
   sodipodi:docname="lecture.svg"><metadata
     id="metadata41"><rdf:RDF><cc:Work
         rdf:about=""><dc:format>image/svg+xml</dc:format><dc:type
           rdf:resource="http://purl.org/dc/dcmitype/StillImage" /><dc:title></dc:title></cc:Work></rdf:RDF></metadata><defs
     id="defs39" /><sodipodi:namedview
     pagecolor="#ffffff"
     bordercolor="#666666"
     borderopacity="1"
     objecttolerance="10"
     gridtolerance="10"
     guidetolerance="10"
     inkscape:pageopacity="0"
     inkscape:pageshadow="2"
     inkscape:window-width="640"
     inkscape:window-height="480"
     id="namedview37"
     showgrid="false"
     inkscape:zoom="7.1595422"
     inkscape:cx="16.481501"
     inkscape:cy="16.481501"
     inkscape:window-x="47"
     inkscape:window-y="0"
     inkscape:window-maximized="0"
     inkscape:current-layer="Capa_1" /><g
     id="g3"><path
       style="fill:#010002;"
       d="M6.921,10.018c0,0-0.128-2.618,3.436-2.686h1.935l0.679,1.114l0.678-1.114h1.689   c0,0,3.159-0.035,3.39,2.686v3.453h-2.097v-3.023l-0.679-0.002v3.025H9.669l0.007-2.996H9.018v2.996H6.921V10.018z M12.971,6.532   c1.371,0,2.483-1.112,2.483-2.483s-1.112-2.483-2.483-2.483s-2.483,1.112-2.483,2.483C10.488,5.42,11.6,6.532,12.971,6.532z    M9.678,32.963h6.29l3.053-16.034H6.618L9.678,32.963z M28.257,3.353c0,1.776-1.961,3.223-4.44,3.341   c-1.309,1.058-3.58,1.676-3.58,1.676c1.066-0.968,1.175-1.649,1.106-2.028c-1.552-0.551-2.616-1.68-2.616-2.988   C18.727,1.501,20.86,0,23.492,0S28.258,1.501,28.257,3.353z M26.316,4.186c0-0.165-0.133-0.297-0.299-0.297h-5.052   c-0.165,0-0.297,0.132-0.297,0.297s0.132,0.297,0.297,0.297h5.052C26.183,4.483,26.316,4.351,26.316,4.186z M26.316,2.566   c0-0.164-0.133-0.298-0.299-0.298h-5.052c-0.165,0-0.297,0.134-0.297,0.298s0.132,0.298,0.297,0.298h5.052   C26.183,2.864,26.316,2.73,26.316,2.566z M4.706,16.307h16.231v-2.386H4.706V16.307z"
       id="path5" /></g><g
     id="g7" /><g
     id="g9" /><g
     id="g11" /><g
     id="g13" /><g
     id="g15" /><g
     id="g17" /><g
     id="g19" /><g
     id="g21" /><g
     id="g23" /><g
     id="g25" /><g
     id="g27" /><g
     id="g29" /><g
     id="g31" /><g
     id="g33" /><g
     id="g35" /></svg>