<?xml version="1.0" encoding="UTF-8" standalone="no"?>
<!-- Generator: Adobe Illustrator 18.1.1, SVG Export Plug-In . SVG Version: 6.00 Build 0)  -->

<svg
   xmlns:dc="http://purl.org/dc/elements/1.1/"
   xmlns:cc="http://creativecommons.org/ns#"
   xmlns:rdf="http://www.w3.org/1999/02/22-rdf-syntax-ns#"
   xmlns:svg="http://www.w3.org/2000/svg"
   xmlns="http://www.w3.org/2000/svg"
   xmlns:sodipodi="http://sodipodi.sourceforge.net/DTD/sodipodi-0.dtd"
   xmlns:inkscape="http://www.inkscape.org/namespaces/inkscape"
   version="1.1"
   id="Capa_1"
   x="0px"
   y="0px"
   viewBox="0 0 383.123 383.123"
   style="enable-background:new 0 0 383.123 383.123;"
   xml:space="preserve"
   inkscape:version="0.91 r13725"
   sodipodi:docname="stopwatch.svg"><metadata
     id="metadata46"><rdf:RDF><cc:Work
         rdf:about=""><dc:format>image/svg+xml</dc:format><dc:type
           rdf:resource="http://purl.org/dc/dcmitype/StillImage" /><dc:title></dc:title></cc:Work></rdf:RDF></metadata><defs
     id="defs44" /><sodipodi:namedview
     pagecolor="#ffffff"
     bordercolor="#666666"
     borderopacity="1"
     objecttolerance="10"
     gridtolerance="10"
     guidetolerance="10"
     inkscape:pageopacity="0"
     inkscape:pageshadow="2"
     inkscape:window-width="640"
     inkscape:window-height="480"
     id="namedview42"
     showgrid="false"
     inkscape:zoom="0.61599019"
     inkscape:cx="191.56149"
     inkscape:cy="191.56149"
     inkscape:window-x="58"
     inkscape:window-y="0"
     inkscape:window-maximized="0"
     inkscape:current-layer="Capa_1" /><g
     id="g3"><g
       id="Layer_5_38_"><g
         id="g6"><path
           d="M301.043,203.653c5.25,0,6.107-4.891,5.787-7.303c-7.228-54.439-52.112-96.985-107.615-100.591     c-2.529-0.164-7.652-0.004-7.652,5.074v95.671c0,0,0,7.148,7.147,7.148C224.293,203.653,301.043,203.653,301.043,203.653z"
           id="path8" /><path
           d="M327.205,104.246l7.772-7.77c0.666-0.666,1.378-0.634,1.772-0.668c2.482-0.216,5.21-0.475,8.349-1.053     c11.356-2.092,5.632-14.502-5.863-25.997c-11.496-11.496-24.02-17.241-25.996-5.863c-0.592,3.407-0.836,5.863-1.052,8.345     c-0.025,0.296,0.001,0.822-0.546,1.369l-7.494,7.494c-1.459,1.459-2.601,0.354-3.214-0.154     c-23.247-19.306-51.68-32.576-82.903-37.419c-0.765-0.118-2.298-0.321-2.298-1.884v-4.625c0-1.125,0.877-1.543,1.304-1.733     c7.355-3.292,12.495-8.122,17.305-13.671C245.295,7.981,215.252,0,191.709,0c-23.544,0-53.585,7.979-42.63,20.616     c4.677,5.394,9.664,10.111,16.696,13.395c0.528,0.247,1.619,0.51,1.619,2.197v4.188c0,1.625-1.472,1.999-2.206,2.112     c-40.029,6.186-75.485,26.222-101.3,55.075c-27.141,30.31-43.641,70.34-43.641,114.22c0,94.62,76.699,171.32,171.31,171.32     c90.01,0,163.809-69.41,170.779-157.64c0.359-4.511,0.541-9.07,0.541-13.681c0-39.368-13.283-75.63-35.604-104.561     C326.829,106.666,325.914,105.537,327.205,104.246z M329.776,225.363c-6.809,70.34-66.09,125.32-138.219,125.32     c-76.701,0-138.881-62.18-138.881-138.88c0-35.58,13.381-68.03,35.381-92.601c25.43-28.399,62.379-46.279,103.5-46.279     c76.709,0,138.879,62.18,138.879,138.88C330.437,216.374,330.218,220.904,329.776,225.363z"
           id="path10" /></g></g></g><g
     id="g12" /><g
     id="g14" /><g
     id="g16" /><g
     id="g18" /><g
     id="g20" /><g
     id="g22" /><g
     id="g24" /><g
     id="g26" /><g
     id="g28" /><g
     id="g30" /><g
     id="g32" /><g
     id="g34" /><g
     id="g36" /><g
     id="g38" /><g
     id="g40" /></svg>