<?xml version="1.0" encoding="UTF-8" standalone="no"?>
<!-- Generator: Adobe Illustrator 18.1.1, SVG Export Plug-In . SVG Version: 6.00 Build 0)  -->

<svg
   xmlns:dc="http://purl.org/dc/elements/1.1/"
   xmlns:cc="http://creativecommons.org/ns#"
   xmlns:rdf="http://www.w3.org/1999/02/22-rdf-syntax-ns#"
   xmlns:svg="http://www.w3.org/2000/svg"
   xmlns="http://www.w3.org/2000/svg"
   xmlns:sodipodi="http://sodipodi.sourceforge.net/DTD/sodipodi-0.dtd"
   xmlns:inkscape="http://www.inkscape.org/namespaces/inkscape"
   version="1.1"
   id="Capa_1"
   x="0px"
   y="0px"
   viewBox="0 0 16.087 16.087"
   style="enable-background:new 0 0 16.087 16.087;"
   xml:space="preserve"
   inkscape:version="0.91 r13725"
   sodipodi:docname="pairspeaking.svg"><metadata
     id="metadata45"><rdf:RDF><cc:Work
         rdf:about=""><dc:format>image/svg+xml</dc:format><dc:type
           rdf:resource="http://purl.org/dc/dcmitype/StillImage" /><dc:title></dc:title></cc:Work></rdf:RDF></metadata><defs
     id="defs43" /><sodipodi:namedview
     pagecolor="#ffffff"
     bordercolor="#666666"
     borderopacity="1"
     objecttolerance="10"
     gridtolerance="10"
     guidetolerance="10"
     inkscape:pageopacity="0"
     inkscape:pageshadow="2"
     inkscape:window-width="640"
     inkscape:window-height="480"
     id="namedview41"
     showgrid="false"
     inkscape:zoom="14.670231"
     inkscape:cx="8.0434999"
     inkscape:cy="8.0434999"
     inkscape:window-x="109"
     inkscape:window-y="0"
     inkscape:window-maximized="0"
     inkscape:current-layer="Capa_1" /><g
     id="g3"><g
       id="g5"><path
         style="fill:#030104;"
         d="M6.5,3.478c-3.59,0-6.5,2.238-6.5,5c0,1.354,0.701,2.585,1.839,3.485    c-0.066,0.918-0.287,2.041-0.927,2.646c1.274,0,2.576-0.798,3.399-1.422c0.684,0.188,1.42,0.291,2.189,0.291    c3.59,0,6.5-2.237,6.5-5C13,5.716,10.09,3.478,6.5,3.478z"
         id="path7" /><path
         style="fill:#030104;"
         d="M15.14,8.965C15.687,8.234,16,7.384,16,6.478c0-2.762-2.91-5-6.5-5    c-1.58,0-3.028,0.434-4.154,1.154C5.876,2.532,6.43,2.478,7,2.478c3.866,0,7,2.463,7,5.5c0,1.197-0.485,2.306-1.312,3.207    c0.821,0.624,2.125,1.424,3.399,1.424C15.181,11.749,15.116,9.843,15.14,8.965z"
         id="path9" /></g></g><g
     id="g11" /><g
     id="g13" /><g
     id="g15" /><g
     id="g17" /><g
     id="g19" /><g
     id="g21" /><g
     id="g23" /><g
     id="g25" /><g
     id="g27" /><g
     id="g29" /><g
     id="g31" /><g
     id="g33" /><g
     id="g35" /><g
     id="g37" /><g
     id="g39" /></svg>