<?xml version="1.0" encoding="UTF-8" standalone="no"?>
<!-- Generator: Adobe Illustrator 16.0.0, SVG Export Plug-In . SVG Version: 6.00 Build 0)  -->

<svg
   xmlns:dc="http://purl.org/dc/elements/1.1/"
   xmlns:cc="http://creativecommons.org/ns#"
   xmlns:rdf="http://www.w3.org/1999/02/22-rdf-syntax-ns#"
   xmlns:svg="http://www.w3.org/2000/svg"
   xmlns="http://www.w3.org/2000/svg"
   xmlns:sodipodi="http://sodipodi.sourceforge.net/DTD/sodipodi-0.dtd"
   xmlns:inkscape="http://www.inkscape.org/namespaces/inkscape"
   version="1.1"
   id="Capa_1"
   x="0px"
   y="0px"
   width="469.633px"
   height="469.633px"
   viewBox="0 0 469.633 469.633"
   style="enable-background:new 0 0 469.633 469.633;"
   xml:space="preserve"
   inkscape:version="0.91 r13725"
   sodipodi:docname="video.svg"><metadata
     id="metadata41"><rdf:RDF><cc:Work
         rdf:about=""><dc:format>image/svg+xml</dc:format><dc:type
           rdf:resource="http://purl.org/dc/dcmitype/StillImage" /><dc:title></dc:title></cc:Work></rdf:RDF></metadata><defs
     id="defs39" /><sodipodi:namedview
     pagecolor="#ffffff"
     bordercolor="#666666"
     borderopacity="1"
     objecttolerance="10"
     gridtolerance="10"
     guidetolerance="10"
     inkscape:pageopacity="0"
     inkscape:pageshadow="2"
     inkscape:window-width="640"
     inkscape:window-height="480"
     id="namedview37"
     showgrid="false"
     inkscape:zoom="0.50252006"
     inkscape:cx="234.8165"
     inkscape:cy="234.8165"
     inkscape:window-x="143"
     inkscape:window-y="2"
     inkscape:window-maximized="0"
     inkscape:current-layer="Capa_1" /><g
     id="g3"><path
       d="M450.066,0v19.91h-44.5V0h-341.5v19.91h-44.5V0H0v469.633h19.566v-21.26h44.5v21.26h341.5v-21.26h44.5v21.26h19.566V0   H450.066z M64.066,396.635h-44.5v-42.443h44.5V396.635z M64.066,302.454h-44.5v-42.443h44.5V302.454z M64.066,208.273h-44.5V165.83   h44.5V208.273z M64.066,114.091h-44.5V71.648h44.5V114.091z M365.568,54.063v149.819H104.063V54.063H365.568z M104.063,415.568   V265.75h261.505v149.818H104.063z M450.066,396.635h-44.5v-42.443h44.5V396.635z M450.066,302.454h-44.5v-42.443h44.5V302.454z    M450.066,208.273h-44.5V165.83h44.5V208.273z M450.066,114.091h-44.5V71.648h44.5V114.091z"
       id="path5" /></g><g
     id="g7" /><g
     id="g9" /><g
     id="g11" /><g
     id="g13" /><g
     id="g15" /><g
     id="g17" /><g
     id="g19" /><g
     id="g21" /><g
     id="g23" /><g
     id="g25" /><g
     id="g27" /><g
     id="g29" /><g
     id="g31" /><g
     id="g33" /><g
     id="g35" /></svg>