<svg xmlns="http://www.w3.org/2000/svg" width="700" height="512" viewBox="0 0  700 512"><path d="M679.65 476.195h-170.3c-.007-185.344-92.65-97.25-92.65-259.664 0-58.626 38.38-90.447 87.665-90.447 72.818 0 123.497 69.527 54.54 199.537-22.653 42.71 24.124 52.86 74.377 64.452 50.232 11.585 46.367 38.07 46.367 86.123zm-276.64-108.33c-63.21-14.58-122.05-27.35-93.554-81.073 86.738-163.53 22.99-250.988-68.604-250.988-93.4 0-155.58 90.81-68.602 250.988 29.35 54.053-31.706 66.804-93.557 81.072C15.51 382.437 20.37 415.75 20.37 476.197h440.966c0-60.447 4.86-93.76-58.327-108.333z" fill="#ffff00" fill-opacity="0.94117647" /></svg>