<?xml version="1.0" encoding="UTF-8" standalone="no"?>
<svg
   xmlns:dc="http://purl.org/dc/elements/1.1/"
   xmlns:cc="http://creativecommons.org/ns#"
   xmlns:rdf="http://www.w3.org/1999/02/22-rdf-syntax-ns#"
   xmlns:svg="http://www.w3.org/2000/svg"
   xmlns="http://www.w3.org/2000/svg"
   xmlns:sodipodi="http://sodipodi.sourceforge.net/DTD/sodipodi-0.dtd"
   xmlns:inkscape="http://www.inkscape.org/namespaces/inkscape"
   version="1.1"
   x="0px"
   y="0px"
   width="512px"
   height="512px"
   viewBox="0 0 512 512"
   style="enable-background:new 0 0 512 512;"
   xml:space="preserve"
   id="svg2993"
   inkscape:version="0.48.5 r10040"
   sodipodi:docname="extras.svg"><metadata
   id="metadata3000"><rdf:RDF><cc:Work
       rdf:about=""><dc:format>image/svg+xml</dc:format><dc:type
         rdf:resource="http://purl.org/dc/dcmitype/StillImage" /></cc:Work></rdf:RDF></metadata><defs
   id="defs2998" /><sodipodi:namedview
   pagecolor="#ffffff"
   bordercolor="#666666"
   borderopacity="1"
   objecttolerance="10"
   gridtolerance="10"
   guidetolerance="10"
   inkscape:pageopacity="0"
   inkscape:pageshadow="2"
   inkscape:window-width="1920"
   inkscape:window-height="1018"
   id="namedview2996"
   showgrid="false"
   inkscape:zoom="1.5322571"
   inkscape:cx="142.11572"
   inkscape:cy="256"
   inkscape:window-x="-8"
   inkscape:window-y="-8"
   inkscape:window-maximized="1"
   inkscape:current-layer="svg2993" />
<path
   id="archive-6-icon"
   d="M323.474,115l6.41,22.69H182.275l6.379-22.69H323.474z M168.163,90h175.776l40.06,140.232h41.512  L373.553,50H138.571L86.489,230.232h41.803L168.163,90z M169.979,181.42h172.258l-7.627-27H177.57L169.979,181.42z M156.254,230.232  h199.773l-8.758-31H164.971L156.254,230.232z M415.299,300.232L397.438,422H114.562l-17.86-121.768H415.299z M461.594,260.232  H50.406L80,462h352L461.594,260.232z M313.457,348.5c0-9.665-7.835-17.5-17.499-17.5h-79.917c-9.664,0-17.5,7.835-17.5,17.5  c0,9.666,7.836,17.5,17.5,17.5h79.917C305.622,366,313.457,358.166,313.457,348.5z"
   style="fill:#ffffff;fill-opacity:1;stroke:#000000;stroke-opacity:1" />
</svg>