<?xml version="1.0" encoding="UTF-8" standalone="no"?>
<!-- Created with Inkscape (http://www.inkscape.org/) -->

<svg
   xmlns:dc="http://purl.org/dc/elements/1.1/"
   xmlns:cc="http://creativecommons.org/ns#"
   xmlns:rdf="http://www.w3.org/1999/02/22-rdf-syntax-ns#"
   xmlns:svg="http://www.w3.org/2000/svg"
   xmlns="http://www.w3.org/2000/svg"
   xmlns:sodipodi="http://sodipodi.sourceforge.net/DTD/sodipodi-0.dtd"
   xmlns:inkscape="http://www.inkscape.org/namespaces/inkscape"
   id="svg2210"
   sodipodi:version="0.32"
   inkscape:version="0.48.5 r10040"
   width="101.02363"
   height="105.10195"
   version="1.0"
   sodipodi:docname="Lampa simple.svg"
   inkscape:output_extension="org.inkscape.output.svg.inkscape">
  <metadata
     id="metadata2215">
    <rdf:RDF>
      <cc:Work
         rdf:about="">
        <dc:format>image/svg+xml</dc:format>
        <dc:type
           rdf:resource="http://purl.org/dc/dcmitype/StillImage" />
        <dc:title></dc:title>
      </cc:Work>
    </rdf:RDF>
  </metadata>
  <defs
     id="defs2213" />
  <sodipodi:namedview
     inkscape:window-height="1018"
     inkscape:window-width="1920"
     inkscape:pageshadow="2"
     inkscape:pageopacity="0.0"
     guidetolerance="10.0"
     gridtolerance="10.0"
     objecttolerance="10.0"
     borderopacity="1.0"
     bordercolor="#666666"
     pagecolor="#ffffff"
     id="base"
     inkscape:zoom="1.994709"
     inkscape:cx="45.398963"
     inkscape:cy="11.11244"
     inkscape:window-x="-8"
     inkscape:window-y="-8"
     inkscape:current-layer="svg2210"
     showgrid="false"
     fit-margin-top="0"
     fit-margin-left="0"
     fit-margin-right="0"
     fit-margin-bottom="0"
     inkscape:window-maximized="1" />
  <path
     style="fill:#000000;fill-opacity:0.16814156"
     d="m 35.748797,104.72294 29.74309,0.12456 -29.74309,-0.12456 z m 16.94505,-0.68809 c 1.69103,-1.86857 1.58942,-1.897 -4.46993,-1.25077 -5.73656,0.6118 -6.20029,0.51307 -6.20029,-1.31998 0,-1.496479 1.10733,-2.291265 4.52576,-3.248365 6.76702,-1.89465 6.38793,-2.99279 -1.03317,-2.99279 -6.6229,0 -6.62531,-10e-4 -6.30901,-2.723489 0.25309,-2.17837 1.05063,-2.92895 3.98457,-3.750004 5.62231,-1.57337 5.68463,-2.52651 0.16518,-2.52651 -5.66357,0 -6.31635,-0.34894 -5.62175,-3.0051 0.44809,-1.7135 1.73652,-1.91746 13.84738,-2.19209 13.32223,-0.30211 13.35469,-0.2973 13.94584,2.06519 0.70819,2.83021 1.13673,2.43174 -5.0048,4.65365 -7.11359,2.573584 -7.70348,3.547454 -1.96393,3.242284 4.40393,-0.23416 4.99824,-0.02341 5.26801,1.86804 0.25007,1.75326 -0.7168,2.552629 -5.44298,4.499999 l -5.74706,2.368026 4.44298,0.499999 4.44298,0.5 -5.28008,2.61197 c -4.35736,2.15553 -4.97769,2.27784 -3.5497,0.69994 z m -2.11601,-33.474248 c 0.96506,-6.640683 5.07666,-20.693785 7.36933,-25.187793 l 1.89037,-3.705424 -7.15696,-0.02475 c -3.93632,-0.01362 -8.34616,-0.335068 -9.79964,-0.71434 l -2.64268,-0.689586 1.89268,6.081212 c 1.04098,3.344667 1.84339,7.27862 1.78312,8.742118 -0.0777,1.887085 -0.35237,1.430688 -0.94449,-1.569394 -0.45921,-2.326664 -1.7599,-6.321367 -2.89043,-8.877118 -1.13053,-2.55575 -2.05551,-5.022684 -2.05551,-5.482075 0,-0.459391 2.90251,-0.564216 6.45002,-0.232944 3.67395,0.343079 9.10775,0.07944 12.62507,-0.612554 8.65276,-1.702326 9.05051,-0.918549 4.54064,8.947458 -2.03542,4.452784 -4.71924,12.457746 -5.96405,17.788803 -1.72144,7.372331 -2.68669,9.774371 -4.03189,10.033441 -1.56952,0.30226 -1.68948,-0.20401 -1.06558,-4.49705 z M 0.58794995,45.972941 C 3.7841,22.869809 18.460398,6.169005 39.934637,1.1986301 c 22.55775,-5.2211651 47.15954,7.0591969 56.47708,28.1913979 2.45086,5.558545 4.611903,14.172071 4.611903,18.382134 l 0,2.450779 -12.948963,0 -12.94898,0 1.56188,-3.7381 c 1.13785,-2.723264 1.44524,-5.960411 1.13224,-11.923879 -0.36075,-6.873114 -0.88324,-8.879512 -3.25823,-12.5119 -3.88294,-5.938671 -8.08371,-9.397435 -14.32545,-11.795049 -10.6895,-4.106115 -21.36096,-1.849377 -29.71471,6.283895 -4.25224,4.140007 -5.66758,6.371477 -7.02238,11.07173 -1.84162,6.389158 -1.47286,13.290271 1.03028,19.281141 l 1.39227,3.332162 -12.960787,0 -12.96079,0 0.58794995,-4.25 z"
     id="path2280"
     sodipodi:nodetypes="ccccssssssssssssscccccccccccccsssssssssccsscccccsssssccccc"
     inkscape:connector-curvature="0" />
</svg>
