<?xml version="1.0" encoding="UTF-8" standalone="no"?>
<svg
   xmlns:dc="http://purl.org/dc/elements/1.1/"
   xmlns:cc="http://creativecommons.org/ns#"
   xmlns:rdf="http://www.w3.org/1999/02/22-rdf-syntax-ns#"
   xmlns:svg="http://www.w3.org/2000/svg"
   xmlns="http://www.w3.org/2000/svg"
   xmlns:sodipodi="http://sodipodi.sourceforge.net/DTD/sodipodi-0.dtd"
   xmlns:inkscape="http://www.inkscape.org/namespaces/inkscape"
   version="1.1"
   x="0px"
   y="0px"
   width="512px"
   height="512px"
   viewBox="0 0 512 512"
   enable-background="new 0 0 512 512"
   xml:space="preserve"
   id="svg5357"
   inkscape:version="0.48.4 r9939"
   sodipodi:docname="iconmonstr-note-19-icon.svg"><metadata
   id="metadata5364"><rdf:RDF><cc:Work
       rdf:about=""><dc:format>image/svg+xml</dc:format><dc:type
         rdf:resource="http://purl.org/dc/dcmitype/StillImage" /><dc:title></dc:title></cc:Work></rdf:RDF></metadata><defs
   id="defs5362" /><sodipodi:namedview
   pagecolor="#ffffff"
   bordercolor="#666666"
   borderopacity="1"
   objecttolerance="10"
   gridtolerance="10"
   guidetolerance="10"
   inkscape:pageopacity="0"
   inkscape:pageshadow="2"
   inkscape:window-width="1920"
   inkscape:window-height="1018"
   id="namedview5360"
   showgrid="false"
   inkscape:zoom="0.4609375"
   inkscape:cx="256"
   inkscape:cy="256"
   inkscape:window-x="-8"
   inkscape:window-y="-8"
   inkscape:window-maximized="1"
   inkscape:current-layer="svg5357" />
<path
   id="note-19-icon"
   d="M196.231,296.612h-72.128v-27.31h72.128V296.612z M462,115.856L315.839,261.945l-60.76-60.726  L401.241,55.128L462,115.856z M348.278,274.426c0,17.83,0,31.954,0,38.671c0,58.959-72.79,35.338-72.79,35.338  s22.287,71.074-32.691,71.074c-29.948,0-44.896,0-155.434,0V109.4h214.654l37.381-37.362H50v384.834h193.366  c63.67,0,142.274-83.196,142.274-140.55v-79.241L348.278,274.426z M238.413,219.604l58.966,58.932l-78.021,17.661L238.413,219.604z"
   style="fill:#ffffff;fill-opacity:1;stroke:#000000;stroke-opacity:1" />
</svg>