<?xml version="1.0" encoding="UTF-8" standalone="no"?>
<!-- Generator: Adobe Illustrator 18.1.1, SVG Export Plug-In . SVG Version: 6.00 Build 0)  -->

<svg
   xmlns:osb="http://www.openswatchbook.org/uri/2009/osb"
   xmlns:dc="http://purl.org/dc/elements/1.1/"
   xmlns:cc="http://creativecommons.org/ns#"
   xmlns:rdf="http://www.w3.org/1999/02/22-rdf-syntax-ns#"
   xmlns:svg="http://www.w3.org/2000/svg"
   xmlns="http://www.w3.org/2000/svg"
   xmlns:sodipodi="http://sodipodi.sourceforge.net/DTD/sodipodi-0.dtd"
   xmlns:inkscape="http://www.inkscape.org/namespaces/inkscape"
   version="1.1"
   id="Capa_1"
   x="0px"
   y="0px"
   viewBox="0 0 31.535 31.535"
   style="enable-background:new 0 0 31.535 31.535;"
   xml:space="preserve"
   inkscape:version="0.48.5 r10040"
   sodipodi:docname="resources.svg"
   width="100%"
   height="100%"><metadata
     id="metadata41"><rdf:RDF><cc:Work
         rdf:about=""><dc:format>image/svg+xml</dc:format><dc:type
           rdf:resource="http://purl.org/dc/dcmitype/StillImage" /><dc:title></dc:title></cc:Work></rdf:RDF></metadata><defs
     id="defs39"><linearGradient
       id="linearGradient4153"
       osb:paint="solid"><stop
         style="stop-color:#f2b400;stop-opacity:1;"
         offset="0"
         id="stop4155" /></linearGradient></defs><sodipodi:namedview
     pagecolor="#ffffff"
     bordercolor="#666666"
     borderopacity="1"
     objecttolerance="10"
     gridtolerance="10"
     guidetolerance="10"
     inkscape:pageopacity="0"
     inkscape:pageshadow="2"
     inkscape:window-width="1920"
     inkscape:window-height="1018"
     id="namedview37"
     showgrid="false"
     inkscape:zoom="24.877616"
     inkscape:cx="1.6583238"
     inkscape:cy="14.698517"
     inkscape:window-x="-8"
     inkscape:window-y="-8"
     inkscape:window-maximized="1"
     inkscape:current-layer="Capa_1" /><path
     inkscape:connector-curvature="0"
     id="path5"
     d="m 23.335326,4.155339 -14.7267734,0 c -0.3328848,0 -0.603523,0.2891059 -0.603523,0.6477712 l 0,21.5546948 c 0,0.356492 0.2706382,0.647047 0.603523,0.647047 l 14.7267734,0 c 0.333561,0 0.6042,-0.288381 0.6042,-0.647047 l 0,-21.5546948 C 23.938849,4.4444449 23.668887,4.155339 23.335326,4.155339 z m -4.385014,14.012581 -1.415438,0 0,-3.193208 0,-0.665161 -1.449943,0 0,3.858369 -0.599464,0 0,-3.858369 -1.447914,0 0,3.858369 -0.66171,0 0,-3.858369 -1.449944,0 0,3.858369 -0.535863,0 0,-3.858369 -1.4492672,0 0,3.858369 -0.7293697,0 0,-5.742992 13.5204039,0 0,5.742992 -2.724649,0 0.447229,-0.226793 -1.610297,-3.631576 -1.309212,0.665161 1.415438,3.193208 z m 2.642781,-7.321844 1.13871,-2.9519234 0,2.9519234 -1.13871,0 z m 1.13871,-5.3973683 0,2.0983729 -1.225991,-0.5398094 -1.432352,3.7156268 0.28417,0.123903 -2.822756,0 0,-4.0199493 -1.449943,0 0,4.0199493 -0.662387,0 0,-4.0199493 -1.447914,0 0,4.0199493 -0.535864,0 0,-4.0199493 -1.449943,0 0,4.0199493 -0.502034,0 0,-4.0199493 -1.449944,0 0,4.0199493 -0.8254459,0 0,-5.3980933 c 0,0 13.5204039,0 13.5204039,0 z M 9.2113991,19.746771 l 13.5204039,0 0,2.553407 -1.163744,-0.559373 -1.537225,3.667805 0.632617,0.302873 -3.1279,0 0,-3.829385 -1.449944,0 0,3.829385 -0.599463,0 0,-3.829385 -1.448591,0 0,3.829385 -0.66171,0 0,-3.829385 -1.449944,0 0,3.829385 -0.535863,0 0,-3.829385 -1.4492672,0 0,3.829385 -0.7293697,0 0,-5.964712 z m 12.2808809,5.964712 1.239523,-2.959169 0,2.959169 -1.239523,0 z"
     style="fill:#ffffff;stroke:#ffffff;stroke-opacity:1;fill-opacity:1;stroke-width:0;stroke-miterlimit:4;stroke-dasharray:none" /><g
     id="g7" /><g
     id="g9" /><g
     id="g11" /><g
     id="g13" /><g
     id="g15" /><g
     id="g17" /><g
     id="g19" /><g
     id="g21" /><g
     id="g23" /><g
     id="g25" /><g
     id="g27" /><g
     id="g29" /><g
     id="g31" /><g
     id="g33" /><g
     id="g35" /><rect
     style="fill:none;stroke:#ffffff;stroke-width:1.72300000000000010;stroke-opacity:1;stroke-miterlimit:4;stroke-dasharray:none;fill-opacity:1"
     id="rect3356"
     width="16.680189"
     height="23.62858"
     x="7.6278391"
     y="3.7527754" /></svg>